<svg xmlns="http://www.w3.org/2000/svg" fill="none" viewBox="0 0 294 127" height="127" width="294">
<g clip-path="url(#clip0_360_2030)">
<path fill="#243F52" d="M18.4902 67.6716V65.776H5V92.2977H7.68602V79.9859H16.9454V78.0903H7.68602V67.6741H18.4902V67.6716Z"></path>
<path fill="#243F52" d="M40.9418 65.4753H40.5429C35.2694 65.4753 32.5762 67.3325 32.5762 71.0804V86.9909C32.5762 90.7076 35.2694 92.596 40.5429 92.596H40.9418C46.2153 92.596 48.9013 90.7076 48.9013 86.9909V71.0804C48.9013 67.371 46.2153 65.4753 40.9418 65.4753ZM46.2153 86.3102C46.2153 89.4567 44.6729 90.7076 40.7424 90.7076C36.8118 90.7076 35.2694 89.4567 35.2694 86.3102V71.7636C35.2694 68.6219 36.807 67.3709 40.7424 67.3709C44.6777 67.3709 46.2153 68.6219 46.2153 71.7636V86.3102Z"></path>
<path fill="#243F52" d="M67.9245 79.002V67.6716H73.2485C77.1863 67.6716 78.7287 68.9226 78.7287 72.0691V74.6022C78.7287 77.7126 77.1863 78.9996 73.2485 78.9996H71.1367V80.8519H73.9981L79.7209 92.2953H82.6088L76.6361 80.5512C79.8219 79.9065 81.4171 78.1239 81.4171 75.2445V71.3835C81.4171 67.6668 78.7311 65.7712 73.4504 65.7712H65.2385V92.2929H67.9245V80.8495"></path>
<path fill="#243F52" d="M100.33 90.4021V79.7982H109.791V77.9026H100.33V67.6741H111.333V65.7785H97.6438V92.3001H111.485V90.4045H100.332L100.33 90.4021Z"></path>
<path fill="#243F52" d="M139.859 65.7761L133.636 88.5883L127.414 65.7761H124.627L132.144 92.2978H135.032L142.55 65.7761H139.864H139.859Z"></path>
<path fill="#243F52" d="M159.665 90.4021V79.7982H169.126V77.9026H159.665V67.6741H170.668V65.7785H156.976V92.3001H170.817V90.4045H159.665V90.4021Z"></path>
<path fill="#243F52" d="M198.643 80.8929C201.235 80.099 202.73 78.4729 202.73 75.8195V71.3908C202.73 67.4865 199.544 65.7786 194.263 65.7786H185.552V92.3002H190.232V68.9251H194.069C196.656 68.9251 198.05 69.7189 198.05 72.0716V75.1748C198.05 77.5275 196.656 78.3213 194.069 78.3213H193.456V81.4245H194.311L199.14 92.2978H203.921L198.641 80.8929H198.643Z"></path>
<path fill="#243F52" d="M218.159 66.4015V92.2977H222.839V66.4015H218.159Z"></path>
<path fill="#243F52" d="M252.013 65.776V84.0393L243.254 65.776H238.573V92.2977H242.903V73.433L251.864 92.2977H256.345V65.776H252.016H252.013Z"></path>
<path fill="#243F52" d="M289 74.7609V71.0828C289 67.2603 285.814 65.4778 280.538 65.4778H280.139C274.866 65.4778 271.678 67.2603 271.678 71.0828V86.9934C271.678 91.0107 274.863 92.5984 280.139 92.5984H280.538C285.812 92.5984 289 90.9722 289 86.9934V78.848H280.139V81.8815H284.32V86.3102C284.32 88.6628 282.926 89.4567 280.339 89.4567C277.751 89.4567 276.353 88.6628 276.353 86.3102V71.7636C276.353 69.4181 277.754 68.6219 280.339 68.6219C282.924 68.6219 284.32 69.4157 284.32 71.7636V74.7609H289Z"></path>
<path fill="#243F52" d="M170.311 -0.000106812C161.289 -0.000106812 153.368 4.79424 148.95 11.9701C148.945 11.9749 148.943 11.9821 148.938 11.987C146.237 7.59194 142.223 4.0918 137.442 2.03262C137.221 1.93639 137.007 1.8522 136.793 1.768C136.591 1.68621 136.394 1.61404 136.202 1.54188C136.106 1.50579 136.01 1.47452 135.911 1.43603C135.726 1.36867 135.541 1.30372 135.356 1.24599C135.171 1.18585 134.993 1.12812 134.825 1.0776C134.66 1.02468 134.503 0.981374 134.354 0.935668C134.347 0.935668 134.338 0.930857 134.33 0.928451C134.318 0.928451 134.294 0.921235 134.265 0.911612C134.246 0.906801 134.222 0.904395 134.198 0.894773C134.157 0.887556 134.114 0.875528 134.061 0.858689C134.054 0.858689 134.042 0.853878 134.032 0.851472C134.004 0.844256 133.98 0.839444 133.948 0.832228C132.459 0.437711 130.907 0.182718 129.316 0.0792777C129.215 0.0744665 129.119 0.0672497 129.018 0.060033C128.817 0.0431938 128.617 0.0311659 128.415 0.0239491C128.242 0.0167323 128.069 0.0119211 127.896 0.00710996C127.783 0.00229878 127.675 0.00229878 127.562 0.00229878C125.196 0.00229878 122.906 0.331865 120.739 0.950102C120.542 1.00302 120.35 1.06316 120.155 1.1233C119.567 1.30372 118.988 1.50579 118.421 1.73192C118.236 1.80409 118.056 1.87625 117.873 1.95323C117.121 2.27077 116.384 2.62199 115.672 3.00929C115.495 3.10551 115.319 3.20173 115.146 3.30277C114.98 3.39899 114.817 3.49522 114.651 3.59385C114.622 3.61069 114.596 3.62993 114.567 3.64677C114.245 3.84403 113.928 4.0461 113.613 4.26019C113.512 4.32515 113.416 4.3925 113.32 4.46226C112.568 4.98187 111.848 5.54238 111.16 6.13896C111.007 6.27127 110.858 6.40598 110.709 6.53829C110.291 6.92078 109.885 7.3153 109.491 7.72665C109.349 7.87099 109.212 8.01773 109.08 8.16687C109.015 8.23664 108.95 8.3088 108.888 8.38097C108.792 8.48682 108.698 8.59026 108.607 8.69851C108.498 8.81879 108.393 8.94388 108.292 9.06897C108.184 9.19406 108.083 9.32156 107.982 9.45146C107.91 9.53566 107.845 9.61985 107.778 9.70405C107.677 9.83636 107.573 9.97107 107.473 10.1058C107.352 10.267 107.235 10.4281 107.119 10.5941C107.002 10.7553 106.891 10.9165 106.778 11.0825C106.648 11.2749 106.521 11.4698 106.396 11.667C106.303 11.8113 106.211 11.9605 106.122 12.1096C106.041 12.2419 105.961 12.3767 105.884 12.5114C105.779 12.6846 105.683 12.8578 105.587 13.0358C105.498 13.1922 105.414 13.3509 105.334 13.5073C105.281 13.6035 105.233 13.6973 105.19 13.7936C105.111 13.9427 105.036 14.0918 104.964 14.2458C104.736 14.7125 104.525 15.1888 104.332 15.6723H112.734C112.89 15.4173 113.056 15.1768 113.229 14.9362C113.306 14.828 113.385 14.7197 113.467 14.609C113.556 14.4888 113.645 14.3709 113.736 14.2578C113.82 14.1448 113.909 14.0365 114.003 13.9283C114.087 13.8224 114.176 13.719 114.264 13.6179C115.386 12.3117 116.703 11.1763 118.159 10.2501C118.279 10.1731 118.397 10.0962 118.517 10.0288C118.757 9.88447 119.005 9.74254 119.25 9.61023C119.382 9.53806 119.516 9.46589 119.651 9.40094C119.769 9.3408 119.884 9.28547 120.004 9.22774C120.523 8.97756 121.054 8.75143 121.602 8.55418C121.727 8.51087 121.852 8.46517 121.977 8.42427C122.109 8.37616 122.246 8.33045 122.383 8.29197C122.52 8.25107 122.656 8.20777 122.793 8.17169C122.938 8.13079 123.079 8.0899 123.223 8.05381C123.36 8.02254 123.493 7.98646 123.63 7.95759C123.911 7.88783 124.197 7.8325 124.482 7.77957C124.764 7.73146 125.045 7.68576 125.331 7.64967C125.395 7.64246 125.455 7.63283 125.52 7.63043C125.713 7.60637 125.91 7.58713 126.109 7.57029C126.592 7.52939 127.08 7.51015 127.57 7.51015C137.273 7.51015 145.166 15.4101 145.166 25.1263C145.166 25.2345 145.166 25.3476 145.161 25.4535C145.161 25.5497 145.156 25.6459 145.154 25.7445C145.149 25.9129 145.142 26.026 145.142 26.0356C145.137 26.1318 145.135 26.2281 145.122 26.3267C144.51 35.4848 136.875 42.7424 127.572 42.7424C121.345 42.7424 115.865 39.4877 112.736 34.5851H104.335C108.068 43.7624 117.078 50.2455 127.57 50.2455C136.598 50.2455 144.529 45.4463 148.943 38.2632C153.361 45.4463 161.287 50.2455 170.315 50.2455C171.61 50.2455 172.886 50.1444 174.131 49.9544C174.537 49.8943 174.935 49.8221 175.334 49.7403C177.158 49.3698 178.907 48.7973 180.565 48.0516C180.665 48.0083 180.762 47.9626 180.858 47.9145C180.966 47.8663 181.074 47.8134 181.184 47.7605C181.365 47.6715 181.547 47.5825 181.727 47.4911C182.093 47.3058 182.455 47.1086 182.809 46.8993C182.977 46.8031 183.147 46.7068 183.315 46.601C183.484 46.5 183.657 46.3917 183.827 46.2835C184 46.1752 184.166 46.0621 184.334 45.9491C184.5 45.836 184.663 45.7206 184.829 45.6027C184.995 45.4848 185.156 45.3693 185.317 45.2491C185.478 45.1288 185.639 45.0085 185.795 44.8834C185.968 44.7511 186.136 44.6092 186.307 44.4721C186.448 44.3518 186.588 44.2339 186.725 44.1136C186.878 43.9813 187.027 43.8466 187.176 43.7143C187.332 43.5724 187.491 43.428 187.642 43.2837C187.779 43.1466 187.916 43.0143 188.048 42.882C188.769 42.1603 189.444 41.3953 190.076 40.5942C190.189 40.4499 190.302 40.3008 190.415 40.1468C190.535 39.9856 190.653 39.8245 190.768 39.6585C190.881 39.5021 190.994 39.3433 191.097 39.1822C191.181 39.0571 191.265 38.932 191.347 38.8069C191.455 38.6457 191.561 38.4797 191.657 38.3161C191.77 38.1381 191.873 37.9625 191.979 37.7845C192.085 37.6113 192.181 37.4381 192.277 37.2601C192.378 37.0869 192.469 36.9089 192.563 36.7285C192.63 36.5986 192.7 36.4711 192.765 36.3387C192.89 36.0886 193.01 35.8384 193.123 35.5882C193.166 35.4944 193.207 35.4078 193.247 35.314C193.312 35.1769 193.372 35.0349 193.428 34.8954C193.495 34.739 193.565 34.5779 193.629 34.4167C193.718 34.1833 193.807 33.95 193.891 33.7167C193.956 33.5555 194.011 33.3895 194.069 33.2211C194.081 33.185 194.098 33.1441 194.11 33.1032C194.165 32.9372 194.218 32.7737 194.271 32.6029C194.276 32.5908 194.278 32.5836 194.283 32.5716C194.336 32.4056 194.384 32.242 194.427 32.076C194.494 31.8379 194.564 31.5973 194.624 31.3544C194.665 31.198 194.703 31.0368 194.742 30.8757C194.807 30.6062 194.862 30.3368 194.92 30.065C194.951 29.899 194.984 29.7354 195.013 29.5694C195.049 29.3842 195.078 29.199 195.107 29.0089C195.136 28.8429 195.16 28.6793 195.179 28.5134C195.203 28.3329 195.227 28.1501 195.246 27.9649C195.27 27.7676 195.29 27.5704 195.306 27.3683C195.306 27.3515 195.311 27.3322 195.311 27.313C195.352 26.9016 195.376 26.4879 195.388 26.0669C195.395 25.8528 195.4 25.6387 195.405 25.427C195.41 25.326 195.41 25.2297 195.41 25.1287C195.41 11.2773 184.156 0.00951555 170.323 0.00951555L170.311 -0.000106812ZM187.89 25.8167C187.866 26.4325 187.811 27.0411 187.724 27.6425C187.705 27.7845 187.683 27.9216 187.659 28.0563C187.64 28.1766 187.618 28.2945 187.594 28.4099C187.551 28.6601 187.498 28.9055 187.438 29.1508C187.409 29.2711 187.383 29.3914 187.349 29.5141C187.308 29.6705 187.265 29.8292 187.22 29.9856C187.188 30.1107 187.152 30.231 187.111 30.3512C187.071 30.4884 187.023 30.6255 186.979 30.7626C186.936 30.8997 186.886 31.0368 186.835 31.1691C186.244 32.7881 185.418 34.2964 184.404 35.6483C184.32 35.7614 184.236 35.8745 184.147 35.9875C184.063 36.0934 183.981 36.1968 183.892 36.3027C183.08 37.289 182.167 38.1838 181.165 38.9705C181.057 39.0595 180.944 39.1437 180.831 39.2279C180.718 39.3121 180.605 39.3963 180.49 39.478C180.372 39.5622 180.257 39.644 180.139 39.7186C179.906 39.8798 179.668 40.0337 179.428 40.1781C179.308 40.2551 179.183 40.3272 179.063 40.3946C178.693 40.6087 178.313 40.8059 177.931 40.9912C177.802 41.0561 177.674 41.1163 177.545 41.1716C177.415 41.2317 177.283 41.2895 177.151 41.3448C177.018 41.4001 176.889 41.453 176.757 41.506C176.624 41.5589 176.487 41.6118 176.355 41.6599C176.218 41.7128 176.086 41.761 175.949 41.8043C175.824 41.8476 175.699 41.8885 175.572 41.9245C174.594 42.2349 173.576 42.461 172.531 42.5933C172.281 42.6222 172.036 42.6486 171.786 42.6655C171.298 42.7088 170.808 42.7304 170.313 42.7304C169.818 42.7304 169.306 42.7112 168.816 42.6655C168.576 42.6462 168.338 42.6222 168.1 42.5933C166.068 42.3359 164.141 41.7321 162.387 40.8372C162.257 40.7771 162.135 40.7073 162.012 40.6448C161.361 40.2935 160.732 39.9038 160.138 39.4756C160.021 39.3939 159.91 39.3097 159.797 39.2255C159.492 38.9993 159.194 38.7612 158.903 38.5134C158.795 38.4196 158.69 38.3282 158.589 38.2344C157.921 37.6378 157.301 36.9931 156.734 36.3003C156.645 36.1944 156.566 36.091 156.479 35.9851C156.39 35.8721 156.306 35.759 156.222 35.6459C155.374 34.5177 154.661 33.2812 154.106 31.963C154.05 31.8331 153.997 31.7008 153.945 31.5685C153.889 31.4362 153.839 31.3038 153.791 31.1667C153.738 31.0344 153.69 30.8973 153.647 30.7602C153.599 30.6231 153.553 30.4859 153.515 30.3488C153.474 30.2285 153.438 30.1083 153.406 29.9832C153.358 29.8268 153.313 29.668 153.277 29.5117C153.245 29.3914 153.217 29.2711 153.188 29.1484C153.111 28.8309 153.044 28.511 152.986 28.1862C152.969 28.09 152.955 27.9962 152.938 27.8951C152.909 27.7171 152.883 27.5367 152.861 27.3563C152.806 26.9209 152.765 26.4782 152.741 26.0308C152.734 25.8816 152.729 25.7325 152.724 25.5834V25.5593C152.719 25.4102 152.719 25.2658 152.719 25.1167C152.719 15.4005 160.609 7.50053 170.311 7.50053C180.012 7.50053 187.904 15.4005 187.904 25.1167C187.904 25.2177 187.904 25.3139 187.899 25.415C187.895 25.5473 187.895 25.6796 187.887 25.8143L187.89 25.8167ZM102.925 24.893L108.28 30.8179L110.312 28.5663"></path>
<path fill="#243F52" d="M104.326 15.6626H104.33C104.314 15.6939 104.302 15.73 104.287 15.7636C104.299 15.7324 104.316 15.6987 104.328 15.6626H104.326Z"></path>
<path fill="#243F52" d="M195.393 25.4174C195.388 25.6315 195.386 25.8456 195.376 26.0573C195.36 26.4758 195.336 26.892 195.3 27.3033C195.3 27.3226 195.295 27.3442 195.295 27.3587C195.278 27.5607 195.259 27.758 195.235 27.9553C195.215 28.1405 195.191 28.3209 195.167 28.5037C195.148 28.6697 195.124 28.8333 195.095 28.9993C195.066 29.1893 195.04 29.3746 195.002 29.5598C194.973 29.7258 194.942 29.8894 194.908 30.0553C194.853 30.3248 194.795 30.5942 194.73 30.866C194.694 31.0272 194.653 31.1884 194.612 31.3447C194.552 31.5853 194.483 31.8283 194.415 32.0664C194.372 32.2324 194.322 32.396 194.271 32.562C194.266 32.574 194.264 32.5812 194.259 32.5932C194.206 32.7616 194.154 32.9276 194.098 33.0936C194.086 33.1345 194.069 33.1754 194.057 33.2115C194.002 33.3799 193.945 33.5459 193.88 33.707C193.796 33.9404 193.707 34.1737 193.618 34.4071C193.553 34.5682 193.486 34.7294 193.416 34.8858C193.361 35.0277 193.298 35.1672 193.236 35.3043C193.195 35.3982 193.156 35.4848 193.111 35.5786C192.998 35.8288 192.878 36.0789 192.753 36.3291C192.688 36.4614 192.621 36.5913 192.551 36.7188C192.457 36.8993 192.366 37.0773 192.265 37.2505C192.169 37.4285 192.073 37.6017 191.967 37.7749C191.862 37.9529 191.758 38.1285 191.645 38.3065C191.549 38.4725 191.444 38.6361 191.335 38.7973C191.254 38.9224 191.17 39.0474 191.086 39.1725C190.98 39.3337 190.869 39.4901 190.756 39.6488C190.639 39.8148 190.523 39.976 190.403 40.1372C190.29 40.2911 190.177 40.4403 190.064 40.5846C189.433 41.3857 188.757 42.1507 188.037 42.8723C187.905 43.0046 187.768 43.1394 187.631 43.2741C187.477 43.4184 187.321 43.5651 187.165 43.7047C187.016 43.837 186.867 43.9693 186.713 44.104C186.576 44.2243 186.434 44.3421 186.295 44.4624C186.127 44.5995 185.956 44.7415 185.783 44.8738C185.627 44.9989 185.466 45.1192 185.305 45.2394C185.144 45.3597 184.983 45.4776 184.817 45.5931C184.652 45.7109 184.488 45.8264 184.322 45.9395C184.154 46.0525 183.988 46.1656 183.815 46.2738C183.647 46.3821 183.474 46.4903 183.304 46.5914C183.136 46.6972 182.965 46.7934 182.797 46.8897C182.444 47.099 182.081 47.2962 181.716 47.4814C181.535 47.5753 181.353 47.6619 181.173 47.7509C181.065 47.8038 180.956 47.8567 180.846 47.9048C180.75 47.9529 180.654 47.9986 180.553 48.042C178.895 48.7877 177.146 49.3602 175.323 49.7307C174.924 49.8101 174.525 49.8846 174.119 49.9448C172.877 50.1348 171.601 50.2358 170.304 50.2358C161.275 50.2358 153.349 45.4367 148.931 38.2536C147.845 36.4879 147.143 34.7559 146.766 33.7455C145.668 30.7915 145.277 28.1814 145.128 26.3483C145.12 26.3411 145.116 26.3291 145.108 26.3171C145.068 26.2449 145.065 26.1487 145.128 26.026C145.128 26.0188 145.135 25.9057 145.14 25.7349C145.144 25.6387 145.147 25.5425 145.147 25.4438C145.152 25.338 145.152 25.2273 145.152 25.1167C145.152 15.4005 137.262 7.50052 127.556 7.50052C127.065 7.50052 126.578 7.51977 126.095 7.56066C125.898 7.5775 125.701 7.59675 125.506 7.6208C125.441 7.62562 125.381 7.63283 125.316 7.64005C125.031 7.67613 124.749 7.72184 124.468 7.76995C124.182 7.82287 123.897 7.8782 123.615 7.94796C123.478 7.97683 123.346 8.01291 123.209 8.04419C123.065 8.08027 122.924 8.12117 122.779 8.16206C122.642 8.19815 122.505 8.24385 122.369 8.28234C122.232 8.32324 122.095 8.36654 121.962 8.41465C121.838 8.45554 121.713 8.49885 121.588 8.54455C121.04 8.74181 120.509 8.96793 119.99 9.21812C119.87 9.27345 119.752 9.33118 119.637 9.39132C119.5 9.45627 119.368 9.52844 119.236 9.60061C118.991 9.73291 118.746 9.87484 118.503 10.0192C118.383 10.0913 118.265 10.1635 118.145 10.2405C116.689 11.1666 115.372 12.3021 114.25 13.6083C114.157 13.7142 114.07 13.8128 113.989 13.9186C113.895 14.0269 113.808 14.1351 113.722 14.2482C113.628 14.3613 113.542 14.4791 113.453 14.5994C113.371 14.7077 113.292 14.8159 113.215 14.9266C113.042 15.1671 112.876 15.4101 112.72 15.6627H104.318C104.511 15.1792 104.72 14.7029 104.95 14.2362C105.022 14.0822 105.094 13.9331 105.176 13.7839C105.219 13.6877 105.27 13.5939 105.32 13.4977C105.399 13.3413 105.486 13.1825 105.572 13.0262C105.669 12.8482 105.765 12.675 105.87 12.5017C105.947 12.3646 106.027 12.2323 106.108 12.1C106.197 11.9509 106.288 11.8017 106.382 11.6574C106.507 11.4601 106.637 11.2677 106.764 11.0728C106.877 10.9068 106.99 10.7457 107.105 10.5845C107.223 10.4185 107.338 10.2573 107.458 10.0962C107.559 9.95904 107.663 9.82673 107.764 9.69442C107.831 9.61023 107.896 9.52603 107.968 9.44184C108.069 9.31193 108.17 9.18444 108.278 9.05935C108.379 8.93426 108.482 8.80917 108.592 8.68889C108.686 8.58064 108.777 8.47479 108.874 8.37135C108.938 8.29918 109.003 8.22701 109.066 8.15725C109.198 8.0081 109.335 7.86377 109.477 7.71703C109.871 7.30567 110.277 6.91116 110.695 6.52867C110.844 6.39636 110.993 6.26165 111.146 6.12934C111.833 5.53275 112.554 4.97225 113.306 4.45264C113.402 4.38528 113.498 4.31552 113.599 4.25057C113.914 4.03647 114.231 3.83681 114.553 3.63715C114.582 3.62031 114.608 3.60106 114.637 3.58422C114.803 3.488 114.966 3.39178 115.132 3.29315C115.305 3.19211 115.483 3.09589 115.658 2.99966C116.369 2.61236 117.107 2.26355 117.859 1.94361C118.039 1.86663 118.222 1.79446 118.407 1.7223C118.974 1.49617 119.553 1.29651 120.141 1.11368C120.334 1.05354 120.528 0.993402 120.725 0.940479C122.895 0.324647 125.184 -0.00732422 127.548 -0.00732422C127.661 -0.00732422 127.769 -0.00732422 127.882 -0.00251304C128.055 0.00229814 128.228 0.00470374 128.401 0.0143261C128.603 0.0215429 128.802 0.0335708 129.004 0.05041C129.105 0.0576267 129.201 0.0672491 129.302 0.0696547C131.301 0.242857 133.144 0.637374 133.934 0.822605C133.965 0.829821 133.99 0.834633 134.018 0.841849C134.026 0.846661 134.038 0.849066 134.047 0.849066C134.1 0.865905 134.143 0.877933 134.184 0.88515C134.208 0.892367 134.232 0.897178 134.251 0.901989C134.28 0.909206 134.304 0.918828 134.316 0.918828C134.323 0.923639 134.333 0.926045 134.34 0.926045C134.489 0.969346 134.645 1.01505 134.811 1.06797C134.979 1.1209 135.157 1.17623 135.342 1.23637C135.52 1.29651 135.707 1.35665 135.897 1.42641C135.993 1.46249 136.089 1.49617 136.188 1.53225C136.38 1.60442 136.577 1.67659 136.779 1.75838C136.993 1.84258 137.204 1.92677 137.428 2.02299C139.681 2.97801 142.382 4.48873 144.871 6.87748C147.03 8.94869 148.383 11.056 148.885 11.8859C148.902 11.91 148.914 11.934 148.933 11.9629C149.298 12.5667 150.322 14.3276 151.204 16.8102C151.792 18.4748 152.455 20.854 152.708 23.8032C152.703 24.1496 152.7 24.5922 152.703 25.1119V25.4101C152.703 25.4583 152.703 25.5064 152.708 25.5545V25.5785C152.712 25.7277 152.715 25.8768 152.724 26.026C152.748 26.4734 152.789 26.916 152.845 27.3515C152.864 27.5319 152.893 27.7147 152.921 27.8903C152.938 27.9913 152.953 28.0828 152.969 28.1814C153.025 28.5086 153.094 28.8261 153.171 29.1436C153.195 29.2639 153.227 29.3842 153.26 29.5069C153.296 29.6632 153.339 29.822 153.39 29.9784C153.421 30.1035 153.457 30.2237 153.498 30.344C153.539 30.4811 153.582 30.6183 153.63 30.7554C153.673 30.8925 153.724 31.0296 153.774 31.1619C153.822 31.299 153.87 31.4313 153.928 31.5637C153.981 31.696 154.034 31.8307 154.089 31.9582C154.644 33.2764 155.358 34.5129 156.206 35.6411C156.29 35.7542 156.374 35.8673 156.463 35.9803C156.547 36.0862 156.629 36.1896 156.717 36.2954C157.284 36.9883 157.904 37.633 158.572 38.2295C158.673 38.3234 158.776 38.4148 158.887 38.5086C159.178 38.7588 159.476 38.9969 159.781 39.2206C159.894 39.3048 160.006 39.389 160.122 39.4708C160.718 39.899 161.345 40.2887 161.996 40.6399C162.116 40.7049 162.241 40.7723 162.371 40.8324C164.124 41.7273 166.051 42.3311 168.084 42.5885C168.322 42.6173 168.559 42.6414 168.8 42.6606C169.29 42.7039 169.794 42.7256 170.296 42.7256C170.799 42.7256 171.282 42.7063 171.769 42.6606C172.019 42.6438 172.264 42.6173 172.514 42.5885C173.559 42.4562 174.578 42.23 175.556 41.9197C175.685 41.8836 175.81 41.8427 175.933 41.7994C176.07 41.7561 176.202 41.7056 176.339 41.6551C176.471 41.607 176.608 41.5541 176.74 41.5011C176.872 41.4482 177.002 41.3953 177.134 41.34C177.266 41.2846 177.401 41.2269 177.528 41.1668C177.658 41.1114 177.785 41.0489 177.915 40.9864C178.297 40.8011 178.676 40.6039 179.046 40.3898C179.167 40.32 179.292 40.2478 179.412 40.1733C179.652 40.0289 179.89 39.875 180.123 39.7138C180.241 39.6368 180.356 39.5574 180.474 39.4732C180.591 39.3914 180.702 39.3072 180.815 39.2231C180.928 39.1437 181.041 39.0547 181.149 38.9657C182.151 38.179 183.063 37.2865 183.876 36.2979C183.964 36.192 184.044 36.0886 184.13 35.9827C184.219 35.8697 184.303 35.7566 184.387 35.6435C185.401 34.2892 186.225 32.7833 186.819 31.1643C186.872 31.032 186.92 30.8949 186.963 30.7578C187.006 30.6207 187.056 30.4835 187.095 30.3464C187.136 30.2261 187.172 30.1059 187.203 29.9808C187.246 29.8244 187.292 29.6656 187.333 29.5093C187.364 29.389 187.393 29.2687 187.422 29.146C187.482 28.9007 187.535 28.6553 187.578 28.4051C187.602 28.2872 187.621 28.1718 187.643 28.0515C187.667 27.9144 187.686 27.7773 187.708 27.6377C187.792 27.0363 187.849 26.4301 187.873 25.8119C187.881 25.6796 187.881 25.5473 187.885 25.4126H195.376L195.393 25.4174Z"></path>
<path fill="#243F52" d="M104.328 15.6627C104.311 15.694 104.299 15.7301 104.284 15.7637C104.296 15.7325 104.313 15.6988 104.325 15.6627H104.33H104.328Z"></path>
<path fill="#243F52" d="M102.49 24.4696V24.4142L101.161 22.942L102.865 20.7313L102.867 20.7265L103.247 20.2357"></path>
<path fill="#243F52" d="M113.318 20.2358L115.399 22.9421L110.313 28.5664L108.28 30.8204"></path>
<path fill="#243F52" d="M113.318 20.2357L115.398 22.942L110.312 28.5663L108.28 30.8203L102.925 24.8929L102.495 24.4142H102.49L101.161 22.942L102.865 20.7313L102.867 20.7265L103.247 20.2357H113.318Z"></path>
<path fill="#243F52" d="M185.237 15.7541C186.102 17.1373 187.551 19.8725 187.868 23.6108C188.277 28.4484 186.552 32.1001 185.766 33.5483C188.226 34.1882 190.686 34.8256 193.147 35.4655C194.074 33.4111 195.213 30.1756 195.369 26.0933C195.638 19.0738 192.837 13.8513 191.508 11.6983C189.418 13.0502 187.328 14.4022 185.237 15.7541Z"></path>
</g>
<path fill="#243F52" d="M31.0841 120V119.137L32.3456 119.048C32.744 119.034 32.9432 118.768 32.9432 118.252V105.99L31.239 105.924V105.061H42.4821L42.7698 109.532H42.0616L40.3353 106.101H35.267V112.298H38.4319L39.3615 110.24H40.1361V115.397H39.3615L38.4319 113.338H35.267V119.026L37.0597 119.137V120H31.0841ZM51.21 120V119.137L52.4715 119.048C52.8699 119.034 53.0691 118.768 53.0691 118.252V106.035L51.2764 105.924V105.061H57.2521V105.924L55.9905 106.013C55.5922 106.027 55.393 106.293 55.393 106.809V119.026L57.1857 119.137V120H51.21ZM65.6798 120V119.137L66.9414 119.048C67.3397 119.034 67.5389 118.768 67.5389 118.252L67.6938 107.163C67.3692 106.78 67.0815 106.485 66.8307 106.278C66.5799 106.057 66.211 105.872 65.7241 105.725V105.061H69.0439L77.7639 115.773L77.5426 106.057L75.7499 105.99V105.061H80.8181V105.88L79.5566 105.968C79.1582 105.983 78.959 106.249 78.959 106.765L78.782 118.362V120H78.0959L68.6898 108.403L68.9111 119.026L70.7038 119.137V120H65.6798ZM88.9592 120V119.137L90.2208 119.048C90.6191 119.034 90.8183 118.768 90.8183 118.252V105.99L89.1142 105.924V105.061H100.424L100.711 109.443H100.003L98.3211 106.101H93.1422V111.9H96.3513L97.2809 109.841H98.0555V114.998H97.2809L96.3513 112.94H93.1422V118.96H98.985L100.711 115.219H101.42L100.999 120H88.9592ZM122.038 122.612L121.772 122.103C122.599 121.675 123.196 121.077 123.565 120.31C123.934 119.557 124.118 118.62 124.118 117.499V106.035L122.326 105.924V105.061H128.301V105.924L127.04 106.013C126.642 106.027 126.442 106.293 126.442 106.809V117.565C126.442 118.2 126.273 118.871 125.933 119.579C125.609 120.288 125.114 120.922 124.45 121.483C123.801 122.044 122.997 122.42 122.038 122.612ZM136.374 120V119.137L137.635 119.048C138.033 119.034 138.233 118.768 138.233 118.252V105.99L136.528 105.924V105.061H147.838L148.126 109.443H147.417L145.735 106.101H140.556V111.9H143.766L144.695 109.841H145.47V114.998H144.695L143.766 112.94H140.556V118.96H146.399L148.126 115.219H148.834L148.413 120H136.374ZM163.389 120.332L158.321 106.013L156.904 105.924V105.061H162.924V105.924L161.685 105.968C161.508 105.983 161.353 106.035 161.22 106.123C161.102 106.197 161.087 106.374 161.176 106.654L164.451 116.547L168.236 105.061H169.276L173.791 116.592L176.602 105.99L174.61 105.924V105.061H179.7V105.924L178.948 105.968C178.668 105.983 178.468 106.02 178.35 106.079C178.247 106.123 178.158 106.263 178.085 106.499L173.481 120.332H172.906L168.391 108.934L164.053 120.332H163.389ZM187.896 120V119.137L189.158 119.048C189.556 119.034 189.755 118.768 189.755 118.252V105.99L188.051 105.924V105.061H199.36L199.648 109.443H198.94L197.258 106.101H192.079V111.9H195.288L196.218 109.841H196.992V114.998H196.218L195.288 112.94H192.079V118.96H197.922L199.648 115.219H200.356L199.936 120H187.896ZM209.097 120V119.137L210.358 119.048C210.757 119.034 210.956 118.768 210.956 118.252V106.035L209.163 105.924V105.061H215.139V105.924L213.877 106.013C213.479 106.027 213.28 106.293 213.28 106.809V117.234C213.28 118.001 213.405 118.48 213.656 118.672C213.922 118.864 214.35 118.96 214.94 118.96H216.666C217.079 118.96 217.389 118.93 217.596 118.871C217.817 118.797 217.994 118.665 218.127 118.473C218.274 118.281 218.437 117.986 218.614 117.588L219.765 114.998H220.473L220.03 120H209.097ZM228.893 120V119.137L230.155 119.048C230.553 119.034 230.752 118.768 230.752 118.252V105.99L229.048 105.924V105.061H235.378C237.311 105.061 238.742 105.43 239.671 106.168C240.616 106.89 241.088 107.835 241.088 109C241.088 109.812 240.881 110.498 240.468 111.059C240.07 111.605 239.553 112.025 238.919 112.32C238.284 112.601 237.613 112.77 236.905 112.829V112.984C237.333 113.161 237.679 113.36 237.945 113.582C238.211 113.788 238.447 114.061 238.653 114.401C238.875 114.725 239.118 115.16 239.384 115.706C239.649 116.238 239.996 116.924 240.424 117.765C240.616 118.119 240.8 118.384 240.977 118.561C241.154 118.738 241.375 118.864 241.641 118.938C241.907 119.011 242.268 119.078 242.725 119.137V120H239.162C238.838 119.543 238.513 118.989 238.188 118.34C237.864 117.676 237.539 117.005 237.215 116.326C236.89 115.633 236.551 115.02 236.197 114.489C235.857 113.943 235.51 113.567 235.156 113.36H233.076V119.026L234.869 119.137V120H228.893ZM235.466 106.101C235.009 106.101 234.588 106.116 234.205 106.145C233.836 106.16 233.46 106.19 233.076 106.234V112.32H235.09C235.887 112.32 236.536 112.173 237.038 111.878C237.554 111.582 237.93 111.199 238.166 110.727C238.417 110.255 238.543 109.76 238.543 109.244C238.543 108.196 238.262 107.414 237.702 106.898C237.141 106.367 236.396 106.101 235.466 106.101ZM253.293 120V119.137L254.554 119.048C254.953 119.034 255.152 118.768 255.152 118.252V114.002L250.571 106.013L249.154 105.924V105.061H255.307V105.924L254.067 105.968C253.89 105.983 253.721 106.042 253.558 106.145C253.411 106.234 253.411 106.404 253.558 106.654L257.077 112.962L260.552 105.99L258.56 105.924V105.061H263.429V105.924L262.677 105.968C262.396 105.983 262.212 106.02 262.123 106.079C262.05 106.138 261.946 106.278 261.814 106.499L257.476 113.936V119.026L259.268 119.137V120H253.293Z"></path>
<defs>
<clipPath id="clip0_360_2030">
<rect transform="translate(5)" fill="white" height="101" width="284"></rect>
</clipPath>
</defs>
</svg>
