<svg width="356" height="145" viewBox="0 0 356 145" fill="none" xmlns="http://www.w3.org/2000/svg">
<g clip-path="url(#clip0_541_1214)">
<path d="M16.9102 84.5892V82.2197H0V115.372H3.36699V99.982H14.9738V97.6125H3.36699V84.5922H16.9102V84.5892Z" fill="white"/>
<path d="M45.0538 81.8438H44.5539C37.9434 81.8438 34.5674 84.1652 34.5674 88.85V108.738C34.5674 113.384 37.9434 115.745 44.5539 115.745H45.0538C51.6643 115.745 55.0313 113.384 55.0313 108.738V88.85C55.0313 84.2133 51.6643 81.8438 45.0538 81.8438ZM51.6643 107.887C51.6643 111.82 49.7309 113.384 44.8039 113.384C39.8769 113.384 37.9434 111.82 37.9434 107.887V89.704C37.9434 85.7769 39.8708 84.2133 44.8039 84.2133C49.7369 84.2133 51.6643 85.7769 51.6643 89.704V107.887Z" fill="white"/>
<path d="M78.8772 98.7523V84.5894H85.551C90.487 84.5894 92.4205 86.153 92.4205 90.0862V93.2525C92.4205 97.1406 90.487 98.7493 85.551 98.7493H82.9038V101.065H86.4906L93.6643 115.369H97.2842L89.7974 100.689C93.7908 99.8829 95.7905 97.6548 95.7905 94.0554V89.2292C95.7905 84.5834 92.4235 82.2139 85.804 82.2139H75.5103V115.366H78.8772V101.062" fill="white"/>
<path d="M119.498 113.002V99.7474H131.358V97.3779H119.498V84.5922H133.291V82.2227H116.131V115.375H133.481V113.005H119.501L119.498 113.002Z" fill="white"/>
<path d="M169.048 82.2197L161.248 110.735L153.448 82.2197H149.954L159.377 115.372H162.997L172.421 82.2197H169.054H169.048Z" fill="white"/>
<path d="M193.876 113.002V99.7474H205.736V97.3779H193.876V84.5922H207.669V82.2227H190.506V115.375H207.856V113.005H193.876V113.002Z" fill="white"/>
<path d="M242.736 101.116C245.986 100.123 247.859 98.0905 247.859 94.7738V89.238C247.859 84.3576 243.866 82.2227 237.246 82.2227H226.326V115.375H232.193V86.1558H237.002C240.246 86.1558 241.992 87.1481 241.992 90.0889V93.968C241.992 96.9088 240.246 97.9011 237.002 97.9011H236.234V101.78H237.306L243.36 115.372H249.353L242.733 101.116H242.736Z" fill="white"/>
<path d="M267.199 83.001V115.371H273.066V83.001H267.199Z" fill="white"/>
<path d="M309.636 82.2197V105.049L298.656 82.2197H292.789V115.372H298.216V91.791L309.45 115.372H315.066V82.2197H309.639H309.636Z" fill="white"/>
<path d="M356 93.4506V88.853C356 84.0749 352.006 81.8467 345.393 81.8467H344.893C338.283 81.8467 334.286 84.0749 334.286 88.853V108.741C334.286 113.763 338.28 115.747 344.893 115.747H345.393C352.003 115.747 356 113.715 356 108.741V98.5595H344.893V102.351H350.133V107.887C350.133 110.828 348.387 111.82 345.143 111.82C341.9 111.82 340.147 110.828 340.147 107.887V89.7039C340.147 86.7721 341.903 85.7768 345.143 85.7768C348.384 85.7768 350.133 86.7691 350.133 89.7039V93.4506H356Z" fill="white"/>
<path d="M91.8062 133.475L91.9688 135.573H91.8875C91.8875 134.972 91.2791 133.718 90.201 133.7H88.0085C87.4815 133.7 87.1954 134.025 87.1954 134.629V138.535H88.4934C89.2433 138.535 89.8757 138.096 89.8757 137.462H89.9359V139.822H89.8757C89.8757 139.188 89.2463 138.749 88.4934 138.749H87.1954V143.713C87.1954 144.315 87.5206 144.658 88.0085 144.853V144.868H85.0842V144.853C85.5721 144.658 85.8974 144.315 85.8974 143.713V134.629C85.8974 134.028 85.5721 133.685 85.0842 133.49V133.475H91.8031H91.8062Z" fill="white"/>
<path d="M101.028 144.853C101.516 144.658 101.841 144.315 101.841 143.713V134.629C101.841 134.028 101.516 133.685 101.028 133.49V133.475H103.952V133.49C103.464 133.685 103.139 134.028 103.139 134.629V143.713C103.139 144.315 103.464 144.658 103.952 144.853V144.868H101.028V144.853Z" fill="white"/>
<path d="M114.773 133.475L120.742 142.622V134.629C120.742 134.028 120.398 133.685 119.91 133.49V133.475H121.88V133.49C121.392 133.685 121.067 134.028 121.067 134.629V144.868H120.742L114.143 134.744V143.713C114.143 144.315 114.468 144.658 114.956 144.853V144.868H113.008V144.853C113.496 144.658 113.821 144.315 113.821 143.713V134.629C113.821 134.028 113.496 133.685 113.008 133.49V133.475H114.776H114.773Z" fill="white"/>
<path d="M130.915 133.475H137.634L137.797 135.573H137.715C137.715 134.972 137.107 133.718 136.029 133.7H133.836C133.309 133.7 133.023 134.025 133.023 134.629V138.096H134.321C135.071 138.096 135.704 137.657 135.704 137.023H135.764V139.383H135.704C135.704 138.749 135.074 138.31 134.321 138.31H133.023V143.713C133.023 144.315 133.306 144.643 133.836 144.643H136.029C137.104 144.628 137.715 143.374 137.715 142.769H137.797L137.634 144.868H130.915V144.853C131.403 144.658 131.728 144.315 131.728 143.713V134.629C131.728 134.028 131.403 133.685 130.915 133.49V133.475Z" fill="white"/>
<path d="M159.604 142.345C159.805 142.345 159.989 142.475 159.929 142.736C159.625 144.053 160.498 144.754 162.001 144.754C163.808 144.754 163.971 142.865 163.971 141.563V134.629C163.971 134.028 163.645 133.685 163.157 133.49V133.475H166.103V133.49C165.594 133.685 165.269 134.028 165.269 134.629V141.759C165.269 143.629 164.07 144.997 162.001 144.997C160.378 144.997 159.158 143.972 159.158 142.766C159.158 142.49 159.381 142.342 159.604 142.342V142.345Z" fill="white"/>
<path d="M175.159 133.475H181.878L182.04 135.573H181.959C181.959 134.972 181.351 133.718 180.272 133.7H178.08C177.553 133.7 177.267 134.025 177.267 134.629V138.096H178.565C179.315 138.096 179.947 137.657 179.947 137.023H180.007V139.383H179.947C179.947 138.749 179.318 138.31 178.565 138.31H177.267V143.713C177.267 144.315 177.55 144.643 178.08 144.643H180.272C181.348 144.628 181.959 143.374 181.959 142.769H182.04L181.878 144.868H175.159V144.853C175.647 144.658 175.972 144.315 175.972 143.713V134.629C175.972 134.028 175.647 133.685 175.159 133.49V133.475Z" fill="white"/>
<path d="M190.831 133.493V133.478H193.773V133.493C193.286 133.688 193.144 134.061 193.307 134.584L195.987 142.835L197.755 136.015L197.309 134.647C197.125 134.076 196.701 133.688 196.192 133.493V133.478H199.137V133.493C198.649 133.688 198.508 134.061 198.67 134.584L201.351 142.835L203.504 134.584C203.645 134.046 203.462 133.688 202.956 133.493V133.478H204.823V133.493C204.377 133.67 204.01 134.013 203.847 134.533L201.128 145H200.763L197.941 136.584L195.749 145H195.385L191.933 134.614C191.71 134.061 191.325 133.67 190.837 133.493H190.831Z" fill="white"/>
<path d="M213.614 133.475H220.333L220.496 135.573H220.414C220.414 134.972 219.806 133.718 218.728 133.7H216.535C216.008 133.7 215.722 134.025 215.722 134.629V138.096H217.02C217.77 138.096 218.402 137.657 218.402 137.023H218.463V139.383H218.402C218.402 138.749 217.773 138.31 217.02 138.31H215.722V143.713C215.722 144.315 216.005 144.643 216.535 144.643H218.728C219.803 144.628 220.414 143.374 220.414 142.769H220.496L220.333 144.868H213.614V144.853C214.102 144.658 214.427 144.315 214.427 143.713V134.629C214.427 134.028 214.102 133.685 213.614 133.49V133.475Z" fill="white"/>
<path d="M232.476 133.475V133.49C231.988 133.685 231.663 134.028 231.663 134.629V143.713C231.663 144.315 231.946 144.643 232.476 144.643H234.466C235.542 144.628 236.132 143.374 236.132 142.769H236.234L236.05 144.868H229.554V144.853C230.042 144.658 230.368 144.315 230.368 143.713V134.629C230.368 134.028 230.042 133.685 229.554 133.49V133.475H232.479H232.476Z" fill="white"/>
<path d="M245.167 144.853C245.655 144.658 245.98 144.315 245.98 143.713V134.629C245.98 134.028 245.655 133.685 245.167 133.49V133.475H248.091C253.979 133.475 254.548 138.568 249.796 139.546C251.988 140.051 251.136 144.673 253.551 144.673C253.735 144.673 254.039 144.543 254.141 144.3L254.325 144.429C254.123 144.772 253.614 144.934 253.126 144.934C249.247 144.934 250.488 139.645 249.269 139.645H249.229C248.865 139.693 248.498 139.711 248.094 139.711H247.281V143.665V143.65V143.716C247.281 144.318 247.606 144.661 248.094 144.856V144.871H245.17V144.856L245.167 144.853ZM248.091 139.483C252.84 139.483 252.84 133.703 248.091 133.703C247.564 133.703 247.278 134.028 247.278 134.632V139.483H248.091Z" fill="white"/>
<path d="M261.207 133.493V133.478H264.152V133.493C263.664 133.688 263.522 134.112 263.887 134.566L263.926 134.614V134.599L266.971 138.863L269.287 134.548C269.552 134.076 269.531 133.67 269.043 133.49V133.475H270.91V133.49C270.422 133.685 269.874 134.091 269.57 134.644L267.176 139.137V143.71C267.176 144.312 267.501 144.655 267.989 144.85V144.865H265.046V144.85C265.534 144.655 265.878 144.312 265.878 143.71V139.446L262.486 134.611C262.122 134.091 261.694 133.667 261.207 133.49V133.493Z" fill="white"/>
<path d="M207.22 0C195.911 0 185.982 5.99293 180.444 14.9628C180.438 14.9688 180.435 14.9778 180.429 14.9838C177.044 9.49006 172.011 5.11489 166.018 2.54091C165.741 2.42063 165.473 2.31538 165.205 2.21014C164.952 2.1079 164.705 2.01769 164.464 1.92748C164.344 1.88238 164.223 1.84328 164.1 1.79517C163.868 1.71098 163.636 1.62979 163.404 1.55762C163.172 1.48245 162.949 1.41028 162.738 1.34713C162.531 1.28098 162.335 1.22685 162.148 1.16972C162.139 1.16972 162.127 1.1637 162.118 1.1607C162.103 1.1607 162.073 1.15168 162.037 1.13965C162.013 1.13363 161.983 1.13063 161.952 1.1186C161.901 1.10958 161.847 1.09454 161.781 1.0735C161.772 1.0735 161.757 1.06748 161.745 1.06447C161.709 1.05545 161.678 1.04944 161.639 1.04042C159.772 0.547272 157.827 0.228531 155.833 0.0992306C155.706 0.0932167 155.586 0.0841957 155.459 0.0751747C155.206 0.0541258 154.956 0.0390909 154.703 0.0300699C154.487 0.0210489 154.27 0.0150349 154.053 0.00902097C153.911 0.00300699 153.776 0.00300699 153.634 0.00300699C150.668 0.00300699 147.798 0.414965 145.081 1.18776C144.834 1.25391 144.593 1.32909 144.35 1.40426C143.612 1.62979 142.886 1.88238 142.175 2.16503C141.943 2.25524 141.717 2.34545 141.489 2.44168C140.546 2.8386 139.621 3.27762 138.73 3.76174C138.507 3.88202 138.287 4.0023 138.07 4.1286C137.863 4.24888 137.658 4.36915 137.45 4.49244C137.414 4.51349 137.381 4.53755 137.345 4.5586C136.941 4.80517 136.543 5.05776 136.149 5.32538C136.022 5.40657 135.902 5.49076 135.781 5.57796C134.839 6.22747 133.935 6.9281 133.074 7.67384C132.881 7.83922 132.695 8.00761 132.508 8.173C131.984 8.65111 131.475 9.14425 130.981 9.65845C130.803 9.83887 130.632 10.0223 130.466 10.2087C130.385 10.2959 130.303 10.3861 130.225 10.4763C130.105 10.6087 129.987 10.738 129.873 10.8733C129.737 11.0236 129.605 11.18 129.478 11.3363C129.343 11.4927 129.216 11.6521 129.09 11.8145C128.999 11.9197 128.918 12.0249 128.834 12.1302C128.707 12.2956 128.578 12.464 128.451 12.6324C128.301 12.8338 128.153 13.0353 128.009 13.2428C127.861 13.4442 127.722 13.6457 127.581 13.8532C127.418 14.0938 127.259 14.3373 127.102 14.5839C126.985 14.7643 126.87 14.9507 126.759 15.1372C126.656 15.3026 126.557 15.471 126.461 15.6393C126.328 15.8559 126.208 16.0724 126.087 16.2949C125.976 16.4903 125.87 16.6888 125.771 16.8842C125.705 17.0045 125.644 17.1218 125.59 17.2421C125.491 17.4285 125.397 17.6149 125.307 17.8074C125.021 18.3907 124.756 18.9861 124.515 19.5905H135.047C135.242 19.2718 135.45 18.9711 135.667 18.6704C135.763 18.5351 135.863 18.3998 135.965 18.2614C136.077 18.1111 136.188 17.9638 136.303 17.8224C136.408 17.6811 136.519 17.5458 136.637 17.4105C136.742 17.2782 136.854 17.1489 136.965 17.0226C138.371 15.3898 140.022 13.9705 141.847 12.8128C141.997 12.7166 142.145 12.6203 142.296 12.5361C142.597 12.3557 142.907 12.1783 143.214 12.0129C143.38 11.9227 143.548 11.8325 143.717 11.7513C143.865 11.6761 144.009 11.607 144.16 11.5348C144.81 11.2221 145.476 10.9394 146.163 10.6929C146.319 10.6387 146.476 10.5816 146.632 10.5305C146.798 10.4703 146.97 10.4132 147.141 10.3651C147.313 10.314 147.485 10.2598 147.656 10.2147C147.837 10.1636 148.015 10.1125 148.195 10.0674C148.367 10.0283 148.533 9.9832 148.704 9.94712C149.057 9.85992 149.415 9.79076 149.773 9.7246C150.126 9.66446 150.478 9.60733 150.837 9.56223C150.918 9.5532 150.993 9.54118 151.074 9.53817C151.315 9.5081 151.562 9.48404 151.812 9.46299C152.418 9.41188 153.029 9.38782 153.643 9.38782C165.807 9.38782 175.7 19.2628 175.7 31.408C175.7 31.5433 175.7 31.6846 175.694 31.8169C175.694 31.9372 175.688 32.0575 175.685 32.1808C175.679 32.3913 175.67 32.5326 175.67 32.5446C175.664 32.6649 175.661 32.7852 175.646 32.9085C174.878 44.3561 165.307 53.4282 153.646 53.4282C145.84 53.4282 138.971 49.3597 135.05 43.2315H124.518C129.198 54.7031 140.492 62.807 153.643 62.807C164.961 62.807 174.902 56.808 180.435 47.8292C185.973 56.808 195.908 62.807 207.226 62.807C208.849 62.807 210.448 62.6807 212.008 62.4431C212.517 62.368 213.017 62.2778 213.517 62.1755C215.803 61.7124 217.996 60.9968 220.074 60.0646C220.2 60.0105 220.321 59.9533 220.441 59.8932C220.577 59.8331 220.712 59.7669 220.851 59.7008C221.076 59.5895 221.305 59.4782 221.531 59.364C221.989 59.1324 222.444 58.8859 222.886 58.6243C223.097 58.504 223.311 58.3837 223.522 58.2514C223.733 58.1251 223.95 57.9898 224.163 57.8545C224.38 57.7192 224.588 57.5778 224.799 57.4365C225.007 57.2952 225.211 57.1508 225.419 57.0035C225.627 56.8562 225.829 56.7118 226.031 56.5615C226.232 56.4111 226.434 56.2608 226.63 56.1044C226.847 55.939 227.058 55.7616 227.271 55.5902C227.449 55.4399 227.624 55.2925 227.795 55.1422C227.988 54.9768 228.175 54.8084 228.362 54.643C228.557 54.4656 228.756 54.2852 228.946 54.1048C229.117 53.9334 229.289 53.768 229.455 53.6026C230.358 52.7005 231.205 51.7443 231.997 50.7429C232.138 50.5625 232.28 50.3761 232.421 50.1836C232.572 49.9822 232.719 49.7807 232.864 49.5732C233.005 49.3778 233.147 49.1793 233.277 48.9778C233.382 48.8215 233.487 48.6651 233.59 48.5088C233.725 48.3073 233.858 48.0998 233.978 47.8953C234.12 47.6728 234.249 47.4533 234.382 47.2308C234.514 47.0143 234.635 46.7978 234.755 46.5753C234.882 46.3587 234.996 46.1362 235.114 45.9107C235.198 45.7483 235.285 45.589 235.367 45.4236C235.523 45.1108 235.674 44.7981 235.815 44.4854C235.87 44.3681 235.921 44.2599 235.972 44.1426C236.053 43.9712 236.129 43.7938 236.198 43.6194C236.282 43.4239 236.369 43.2225 236.451 43.021C236.562 42.7293 236.674 42.4376 236.779 42.146C236.86 41.9445 236.93 41.737 237.002 41.5265C237.017 41.4814 237.038 41.4303 237.053 41.3792C237.122 41.1717 237.189 40.9672 237.255 40.7537C237.261 40.7387 237.264 40.7297 237.27 40.7146C237.336 40.5071 237.396 40.3027 237.451 40.0952C237.535 39.7975 237.622 39.4968 237.698 39.1931C237.749 38.9976 237.797 38.7962 237.845 38.5947C237.926 38.2579 237.996 37.9211 238.068 37.5813C238.107 37.3739 238.149 37.1694 238.185 36.9619C238.231 36.7304 238.267 36.4988 238.303 36.2613C238.339 36.0538 238.369 35.8493 238.393 35.6418C238.423 35.4163 238.453 35.1878 238.478 34.9562C238.508 34.7097 238.532 34.4631 238.553 34.2105C238.553 34.1895 238.559 34.1654 238.559 34.1414C238.61 33.6272 238.64 33.11 238.655 32.5837C238.664 32.3161 238.67 32.0485 238.676 31.7839C238.682 31.6576 238.682 31.5373 238.682 31.411C238.682 14.0968 224.576 0.012028 207.235 0.012028L207.22 0ZM229.256 32.271C229.226 33.0408 229.157 33.8016 229.048 34.5533C229.024 34.7307 228.997 34.9021 228.967 35.0705C228.943 35.2209 228.916 35.3682 228.886 35.5125C228.831 35.8253 228.765 36.132 228.69 36.4387C228.654 36.589 228.621 36.7394 228.578 36.8927C228.527 37.0882 228.473 37.2867 228.416 37.4821C228.377 37.6385 228.331 37.7888 228.28 37.9392C228.229 38.1106 228.169 38.282 228.115 38.4534C228.06 38.6248 227.997 38.7962 227.934 38.9616C227.193 40.9853 226.157 42.8706 224.886 44.5606C224.781 44.7019 224.675 44.8432 224.564 44.9846C224.459 45.1169 224.356 45.2462 224.245 45.3785C223.227 46.6113 222.082 47.7299 220.827 48.7132C220.691 48.8245 220.549 48.9297 220.408 49.035C220.266 49.1402 220.125 49.2455 219.98 49.3477C219.833 49.4529 219.688 49.5552 219.541 49.6484C219.248 49.8499 218.95 50.0423 218.649 50.2227C218.499 50.319 218.342 50.4092 218.191 50.4934C217.728 50.761 217.252 51.0076 216.773 51.2391C216.61 51.3203 216.451 51.3955 216.288 51.4646C216.125 51.5398 215.96 51.612 215.794 51.6811C215.628 51.7503 215.466 51.8164 215.3 51.8826C215.135 51.9487 214.963 52.0149 214.797 52.075C214.626 52.1412 214.46 52.2013 214.288 52.2555C214.132 52.3096 213.975 52.3607 213.815 52.4058C212.59 52.7937 211.313 53.0764 210.003 53.2417C209.69 53.2778 209.382 53.3109 209.069 53.332C208.458 53.3861 207.843 53.4131 207.223 53.4131C206.603 53.4131 205.961 53.3891 205.347 53.332C205.046 53.3079 204.747 53.2778 204.449 53.2417C201.902 52.92 199.486 52.1652 197.288 51.0466C197.125 50.9715 196.972 50.8843 196.818 50.8061C196.002 50.3671 195.213 49.8799 194.469 49.3447C194.321 49.2425 194.183 49.1372 194.041 49.032C193.659 48.7493 193.285 48.4516 192.921 48.1419C192.785 48.0246 192.653 47.9104 192.526 47.7931C191.689 47.0474 190.912 46.2415 190.201 45.3755C190.09 45.2432 189.991 45.1139 189.882 44.9815C189.771 44.8402 189.665 44.6989 189.56 44.5576C188.497 43.1473 187.602 41.6017 186.907 39.9539C186.837 39.7915 186.771 39.6261 186.705 39.4607C186.636 39.2953 186.572 39.1299 186.512 38.9585C186.446 38.7932 186.386 38.6218 186.331 38.4504C186.271 38.279 186.214 38.1076 186.166 37.9362C186.115 37.7858 186.069 37.6355 186.03 37.4791C185.97 37.2837 185.913 37.0852 185.868 36.8897C185.829 36.7394 185.792 36.589 185.756 36.4357C185.66 36.0388 185.576 35.6388 185.503 35.2329C185.482 35.1126 185.464 34.9953 185.443 34.869C185.407 34.6465 185.374 34.421 185.347 34.1955C185.277 33.6512 185.226 33.0979 185.196 32.5386C185.187 32.3522 185.181 32.1658 185.175 31.9793V31.9493C185.169 31.7628 185.169 31.5824 185.169 31.396C185.169 19.2507 195.059 9.37579 207.22 9.37579C219.381 9.37579 229.274 19.2507 229.274 31.396C229.274 31.5223 229.274 31.6425 229.268 31.7688C229.262 31.9342 229.262 32.0996 229.253 32.268L229.256 32.271ZM122.75 31.1163L129.463 38.5225L132.011 35.708" fill="white"/>
<path d="M124.506 19.5791H124.512C124.491 19.6182 124.476 19.6633 124.458 19.7054C124.473 19.6663 124.494 19.6242 124.509 19.5791H124.506Z" fill="white"/>
<path d="M238.661 31.7721C238.655 32.0397 238.652 32.3073 238.64 32.5719C238.619 33.0951 238.589 33.6154 238.544 34.1296C238.544 34.1536 238.538 34.1807 238.538 34.1987C238.517 34.4513 238.493 34.6979 238.463 34.9444C238.439 35.176 238.408 35.4015 238.378 35.63C238.354 35.8375 238.324 36.042 238.288 36.2495C238.252 36.487 238.219 36.7186 238.17 36.9501C238.134 37.1576 238.095 37.3621 238.053 37.5695C237.984 37.9063 237.911 38.2431 237.83 38.5829C237.785 38.7844 237.734 38.9858 237.683 39.1813C237.607 39.482 237.52 39.7857 237.436 40.0834C237.381 40.2909 237.318 40.4953 237.255 40.7028C237.249 40.7179 237.246 40.7269 237.24 40.7419C237.174 40.9524 237.107 41.1599 237.038 41.3674C237.023 41.4185 237.002 41.4696 236.987 41.5147C236.918 41.7252 236.845 41.9327 236.764 42.1342C236.659 42.4258 236.547 42.7175 236.436 43.0092C236.354 43.2107 236.27 43.4121 236.183 43.6076C236.114 43.785 236.035 43.9594 235.957 44.1308C235.906 44.2481 235.858 44.3563 235.8 44.4736C235.659 44.7863 235.508 45.099 235.352 45.4118C235.27 45.5772 235.186 45.7395 235.099 45.8989C234.981 46.1244 234.867 46.3469 234.74 46.5634C234.62 46.786 234.499 47.0025 234.367 47.219C234.234 47.4415 234.105 47.661 233.963 47.8835C233.843 48.091 233.71 48.2955 233.575 48.4969C233.472 48.6533 233.367 48.8097 233.262 48.966C233.129 49.1675 232.99 49.363 232.849 49.5614C232.701 49.7689 232.557 49.9704 232.406 50.1718C232.265 50.3643 232.123 50.5507 231.982 50.7311C231.19 51.7325 230.343 52.6887 229.44 53.5908C229.274 53.7562 229.102 53.9246 228.931 54.0929C228.738 54.2734 228.542 54.4568 228.347 54.6312C228.16 54.7966 227.973 54.962 227.78 55.1304C227.609 55.2807 227.431 55.4281 227.256 55.5784C227.046 55.7498 226.832 55.9272 226.615 56.0926C226.419 56.249 226.217 56.3993 226.016 56.5497C225.814 56.7 225.612 56.8473 225.404 56.9917C225.196 57.139 224.992 57.2834 224.784 57.4247C224.573 57.566 224.365 57.7073 224.148 57.8427C223.938 57.978 223.721 58.1133 223.507 58.2396C223.296 58.3719 223.082 58.4922 222.871 58.6124C222.429 58.8741 221.974 59.1206 221.516 59.3522C221.29 59.4694 221.062 59.5777 220.836 59.689C220.7 59.7551 220.565 59.8213 220.426 59.8814C220.306 59.9415 220.185 59.9987 220.059 60.0528C217.981 60.985 215.788 61.7006 213.502 62.1637C213.002 62.2629 212.502 62.3562 211.994 62.4313C210.437 62.6689 208.837 62.7952 207.211 62.7952C195.893 62.7952 185.958 56.7962 180.42 47.8174C179.058 45.6102 178.179 43.4452 177.706 42.1823C176.33 38.4897 175.839 35.2271 175.652 32.9358C175.643 32.9268 175.637 32.9117 175.628 32.8967C175.577 32.8065 175.574 32.6862 175.652 32.5328C175.652 32.5238 175.661 32.3825 175.667 32.169C175.673 32.0487 175.676 31.9284 175.676 31.8051C175.682 31.6728 175.682 31.5345 175.682 31.3962C175.682 19.251 165.792 9.37602 153.625 9.37602C153.011 9.37602 152.4 9.40008 151.794 9.4512C151.547 9.47225 151.3 9.4963 151.056 9.52637C150.975 9.53239 150.9 9.54141 150.819 9.55043C150.46 9.59553 150.108 9.65266 149.755 9.7128C149.397 9.77896 149.039 9.84812 148.686 9.93532C148.515 9.97141 148.349 10.0165 148.177 10.0556C147.997 10.1007 147.819 10.1518 147.638 10.2029C147.467 10.248 147.295 10.3052 147.123 10.3533C146.952 10.4044 146.78 10.4585 146.614 10.5187C146.458 10.5698 146.301 10.6239 146.145 10.6811C145.458 10.9276 144.792 11.2103 144.142 11.523C143.991 11.5922 143.844 11.6643 143.699 11.7395C143.527 11.8207 143.362 11.9109 143.196 12.0011C142.889 12.1665 142.582 12.3439 142.278 12.5243C142.127 12.6145 141.979 12.7048 141.829 12.801C140.004 13.9587 138.354 15.378 136.947 17.0108C136.83 17.1431 136.721 17.2664 136.619 17.3987C136.501 17.534 136.393 17.6693 136.285 17.8106C136.167 17.952 136.059 18.0993 135.947 18.2496C135.845 18.385 135.745 18.5203 135.649 18.6586C135.432 18.9593 135.224 19.263 135.029 19.5787H124.497C124.738 18.9743 125 18.3789 125.289 17.7956C125.379 17.6031 125.47 17.4167 125.572 17.2303C125.626 17.11 125.69 16.9927 125.753 16.8724C125.852 16.677 125.961 16.4785 126.069 16.2831C126.19 16.0606 126.31 15.8441 126.443 15.6276C126.539 15.4562 126.638 15.2908 126.741 15.1254C126.852 14.9389 126.967 14.7525 127.084 14.5721C127.241 14.3255 127.403 14.085 127.563 13.8414C127.704 13.6339 127.846 13.4324 127.991 13.231C128.138 13.0235 128.283 12.822 128.433 12.6206C128.56 12.4492 128.689 12.2838 128.816 12.1184C128.9 12.0132 128.981 11.9079 129.072 11.8027C129.198 11.6403 129.325 11.4809 129.46 11.3245C129.587 11.1682 129.716 11.0118 129.855 10.8615C129.972 10.7262 130.087 10.5939 130.207 10.4646C130.288 10.3743 130.37 10.2841 130.448 10.1969C130.614 10.0105 130.785 9.83008 130.963 9.64665C131.457 9.13246 131.966 8.63931 132.49 8.1612C132.677 7.99581 132.863 7.82742 133.056 7.66204C133.917 6.91631 134.821 6.21568 135.764 5.56617C135.884 5.48197 136.004 5.39477 136.131 5.31358C136.525 5.04596 136.923 4.79638 137.327 4.5468C137.363 4.52575 137.396 4.50169 137.432 4.48064C137.64 4.36036 137.845 4.24009 138.052 4.1168C138.269 3.99051 138.492 3.87023 138.712 3.74995C139.603 3.26582 140.528 2.82981 141.471 2.42988C141.696 2.33365 141.925 2.24345 142.157 2.15324C142.868 1.87058 143.594 1.621 144.332 1.39247C144.572 1.31729 144.816 1.24212 145.063 1.17596C147.783 0.406175 150.653 -0.00878906 153.616 -0.00878906C153.758 -0.00878906 153.893 -0.00878906 154.035 -0.00277509C154.252 0.00323889 154.469 0.00624588 154.685 0.0182738C154.938 0.0272948 155.188 0.0423297 155.441 0.0633787C155.568 0.0723996 155.688 0.0844276 155.815 0.0874346C158.321 0.303938 160.63 0.797084 161.621 1.02862C161.66 1.03764 161.691 1.04366 161.727 1.05268C161.736 1.05869 161.751 1.0617 161.763 1.0617C161.829 1.08275 161.883 1.09778 161.934 1.1068C161.965 1.11582 161.995 1.12184 162.019 1.12785C162.055 1.13687 162.085 1.1489 162.1 1.1489C162.109 1.15492 162.121 1.15792 162.13 1.15792C162.317 1.21205 162.513 1.26918 162.72 1.33533C162.931 1.40149 163.154 1.47065 163.386 1.54582C163.609 1.621 163.844 1.69617 164.082 1.78338C164.202 1.82848 164.323 1.87058 164.446 1.91568C164.687 2.00589 164.934 2.0961 165.187 2.19834C165.455 2.30359 165.72 2.40883 166 2.52911C168.825 3.72288 172.21 5.61127 175.33 8.59721C178.038 11.1862 179.733 13.8204 180.363 14.8578C180.384 14.8878 180.399 14.9179 180.423 14.954C180.881 15.7087 182.163 17.9099 183.269 21.0131C184.007 23.0939 184.838 26.0678 185.154 29.7544C185.148 30.1874 185.145 30.7407 185.148 31.3902V31.7631C185.148 31.8232 185.148 31.8833 185.154 31.9435V31.9735C185.16 32.16 185.163 32.3464 185.175 32.5328C185.205 33.0921 185.256 33.6454 185.326 34.1897C185.35 34.4152 185.386 34.6437 185.422 34.8633C185.443 34.9896 185.461 35.1038 185.482 35.2271C185.552 35.6361 185.639 36.033 185.735 36.4299C185.765 36.5802 185.805 36.7306 185.847 36.884C185.892 37.0794 185.946 37.2779 186.009 37.4733C186.048 37.6297 186.094 37.78 186.145 37.9304C186.196 38.1018 186.25 38.2732 186.31 38.4446C186.365 38.616 186.428 38.7874 186.491 38.9528C186.551 39.1242 186.612 39.2895 186.684 39.4549C186.75 39.6203 186.816 39.7887 186.886 39.9481C187.581 41.5959 188.476 43.1415 189.539 44.5518C189.644 44.6931 189.75 44.8344 189.861 44.9758C189.967 45.1081 190.069 45.2374 190.18 45.3697C190.891 46.2357 191.668 47.0416 192.505 47.7873C192.632 47.9046 192.761 48.0188 192.9 48.1361C193.264 48.4488 193.638 48.7465 194.02 49.0262C194.162 49.1314 194.303 49.2367 194.448 49.3389C195.195 49.8741 195.981 50.3613 196.797 50.8003C196.947 50.8815 197.104 50.9657 197.267 51.0409C199.465 52.1595 201.881 52.9142 204.428 53.236C204.726 53.272 205.025 53.3021 205.326 53.3262C205.94 53.3803 206.573 53.4074 207.202 53.4074C207.831 53.4074 208.437 53.3833 209.048 53.3262C209.361 53.3051 209.669 53.272 209.982 53.236C211.292 53.0706 212.569 52.7879 213.794 52.4C213.957 52.3549 214.114 52.3038 214.267 52.2497C214.439 52.1955 214.605 52.1324 214.776 52.0692C214.942 52.0091 215.114 51.943 215.279 51.8768C215.445 51.8106 215.607 51.7445 215.773 51.6753C215.939 51.6062 216.107 51.534 216.267 51.4588C216.43 51.3897 216.589 51.3115 216.752 51.2333C217.231 51.0018 217.707 50.7552 218.17 50.4876C218.321 50.4004 218.478 50.3102 218.628 50.2169C218.929 50.0365 219.227 49.8441 219.52 49.6426C219.667 49.5464 219.812 49.4471 219.959 49.3419C220.107 49.2397 220.245 49.1344 220.387 49.0292C220.528 48.9299 220.67 48.8187 220.805 48.7074C222.061 47.7241 223.206 46.6086 224.224 45.3727C224.335 45.2404 224.435 45.1111 224.543 44.9788C224.654 44.8374 224.76 44.6961 224.865 44.5548C226.136 42.8618 227.169 40.9795 227.913 38.9558C227.979 38.7904 228.039 38.619 228.094 38.4476C228.148 38.2762 228.211 38.1048 228.259 37.9334C228.31 37.783 228.356 37.6327 228.395 37.4763C228.449 37.2809 228.506 37.0824 228.557 36.887C228.597 36.7366 228.633 36.5863 228.669 36.4329C228.744 36.1262 228.81 35.8195 228.865 35.5068C228.895 35.3594 228.919 35.2151 228.946 35.0647C228.976 34.8933 229 34.7219 229.027 34.5475C229.133 33.7958 229.205 33.038 229.235 32.2652C229.244 32.0998 229.244 31.9344 229.25 31.7661H238.64L238.661 31.7721Z" fill="white"/>
<path d="M124.509 19.5791C124.488 19.6182 124.473 19.6633 124.455 19.7054C124.47 19.6663 124.491 19.6242 124.506 19.5791H124.512H124.509Z" fill="white"/>
<path d="M122.205 30.5872V30.5181L120.54 28.6778L122.675 25.9144L122.678 25.9083L123.154 25.2949" fill="white"/>
<path d="M135.778 25.2949L138.387 28.6778L132.011 35.7081L129.463 38.5257" fill="white"/>
<path d="M135.779 25.2949L138.387 28.6778L132.011 35.7081L129.463 38.5257L122.75 31.1165L122.211 30.5181H122.205L120.54 28.6778L122.675 25.9144L122.678 25.9083L123.154 25.2949H135.779Z" fill="white"/>
<path d="M225.931 19.6928C227.015 21.4218 228.831 24.8408 229.229 29.5137C229.741 35.5607 227.579 40.1253 226.594 41.9355C229.678 42.7354 232.761 43.5322 235.845 44.3321C237.008 41.7641 238.435 37.7197 238.631 32.6169C238.968 23.8425 235.457 17.3143 233.791 14.623C231.171 16.313 228.551 18.0029 225.931 19.6928Z" fill="white"/>
</g>
<defs>
<clipPath id="clip0_541_1214">
<rect width="356" height="145" fill="white"/>
</clipPath>
</defs>
</svg>
