<svg xmlns="http://www.w3.org/2000/svg" width="61" height="61" viewBox="0 0 61 61" fill="none"><g clip-path="url(#clip0_437_635)"><path d="M61 0V61H0.237593C0.222264 61 0.0728107 60.8578 0.0517339 60.8142L0 0.504414L0.0977196 0H60.9981H61ZM1.96972 59.0563H59.082L59.2219 58.9179V2.08213L59.082 1.9437H1.96972V59.0544V59.0563Z" fill="white"></path><path d="M13.2877 11.5712L30.8274 38.4132L48.417 11.5712H54.6844C54.7017 11.5712 54.8511 11.7191 54.8243 11.7551L50.9577 13.1603L50.8006 13.3765L50.7948 47.7221L55.2899 49.3378H44.7189L49.2141 47.7961L49.2083 17.1254L32.1361 43.135L17.1697 20.552L16.5891 22.4749C16.2385 23.2087 15.8629 24.0336 15.3437 24.667C15.0601 25.0121 14.2937 25.526 14.15 25.801C13.9258 26.2314 13.8032 27.1739 13.6614 27.6764L14.1806 26.7586C14.7612 25.9204 15.9453 25.0425 16.8708 24.6063C18.7466 23.7226 17.94 24.9002 17.2904 25.8541C16.8478 26.5064 16.2615 27.1625 15.6158 27.6214C14.5638 28.3686 13.9392 28.2244 13.4276 29.6201C13.0865 30.5512 13.1459 31.5183 13.0061 32.4873C13.213 32.5442 13.2552 32.3413 13.3184 32.1991C14.0733 30.5152 14.2726 29.2067 16.5374 28.9014C16.98 28.8426 19.0589 28.7782 18.7945 29.5575C17.4245 30.5247 16.2117 31.8426 14.6213 32.4665C13.9584 32.7263 13.5771 32.4854 13.2398 33.2288C12.9678 33.8318 12.9831 34.4291 13.0042 35.0777C13.0597 35.1421 13.7303 34.5865 13.7974 34.522C14.1902 34.1485 14.5083 33.6365 14.9758 33.2819C16.0373 32.474 18.3002 31.9639 19.5954 32.2124C20.4423 32.3735 19.1452 33.3615 18.8463 33.5948C17.4437 34.6851 15.8112 35.2047 14.0197 34.943L13.054 35.8248C12.916 37.3968 13.0386 38.984 13.236 40.5409C13.6403 39.9644 14.6865 39.4638 14.5734 38.6692C14.5389 38.4284 14.355 38.1648 14.3205 37.8974C14.2074 37.0555 14.5485 35.9556 14.8838 35.1876C15.3054 34.9278 15.6694 36.0277 15.7441 36.3027C15.9013 36.8829 15.9051 37.3646 15.8093 37.9524C16.1369 37.5978 16.3362 37.1863 16.6945 36.8393C17.2847 36.2666 18.1277 35.821 18.7083 35.218L18.8367 35.182C19.2544 35.254 18.8827 36.3956 18.7811 36.6838C18.5244 37.4044 17.8384 38.3184 17.1486 38.6787C16.7041 38.9101 16.294 38.8797 15.907 39.0238C15.7288 39.0902 14.5313 39.9606 14.3205 40.137C14.1097 40.3133 13.2839 41.1344 13.2839 41.3335V43.4157C13.7917 43.0914 13.7112 42.4979 13.8951 42.0295C14.4814 40.5295 15.748 39.6269 17.1946 38.9992C17.4418 38.8911 17.7828 38.6673 18.0147 38.874C18.1373 39.0466 17.7962 39.8241 17.6985 40.0535C17.3479 40.8708 16.6198 41.9081 15.8974 42.4372C15.656 42.6135 14.7497 42.97 14.7018 43.1066L14.7439 47.8682L18.2408 49.3378H7.57785L11.0383 47.8113V40.9144C10.519 41.1136 10.0745 41.4302 9.53799 41.6047C8.67384 41.8872 7.62 42.0427 6.72903 42.0788C6.42054 41.8588 6.90914 41.1572 7.06817 40.9201C7.87101 39.7236 9.40578 38.9897 10.8505 39.3386L10.1933 38.9252C9.84456 38.6654 8.84629 37.2887 9.11262 36.9265L9.22758 36.8545C10.2144 36.7085 11.318 37.3836 11.6648 38.3033C11.7645 38.5706 11.7491 38.8854 11.8583 39.13C11.9752 39.3917 12.4217 39.9284 12.6286 40.173L12.5386 35.6807L12.1917 34.7951C12.0116 34.6756 11.1724 34.7818 11.0344 34.9373C10.8965 35.0928 10.7489 35.5271 10.5707 35.7489C10.0496 36.4013 8.51864 37.0669 7.69473 37.1882C6.4876 37.3665 7.56827 36.1642 7.91316 35.7376C8.4669 35.0511 9.35979 34.1068 10.3312 34.2528C10.5305 34.2831 10.6685 34.4329 10.8946 34.4367C11.1992 34.4405 11.5709 34.2357 11.8794 34.2016L11.0364 33.1852C9.58972 33.2326 8.33853 32.3185 7.48588 31.2377C7.3096 31.0139 7.08159 30.792 7.3575 30.5417C8.10285 30.4659 8.71791 30.5948 9.42302 30.7086C9.51883 30.7238 9.6587 30.7939 9.63187 30.6384C8.18716 29.9577 6.95704 28.6644 6.09673 27.3503C6.1293 26.8951 7.63916 27.3503 7.94957 27.4432C9.05897 27.7712 10.132 28.3799 10.9386 29.2067L12.6248 31.6567C12.5328 31.2149 12.7436 30.7238 12.7244 30.318C12.6765 29.3527 11.8948 29.2105 11.272 28.6909C11.0632 28.5165 10.7949 28.251 10.6129 28.0462C10.3791 27.7826 9.56098 26.7283 9.62421 26.4381C9.67211 26.3395 9.85797 26.3035 9.95569 26.3035C11.2605 26.2978 12.5999 27.373 12.7206 28.6928C12.9716 28.7175 12.87 28.6928 12.9045 28.5544C12.9907 28.1979 13.1364 26.7681 13.0214 26.495C12.8873 26.1708 11.8641 25.5374 11.5269 25.471C11.1092 25.3895 10.6512 25.911 10.1933 26.0551C9.25824 26.349 7.97256 26.0361 7.05668 25.7365C6.85549 25.6701 5.96835 25.3383 5.8553 25.2605C5.45867 24.9837 5.89554 24.7827 6.15229 24.6499C7.26744 24.0754 9.19693 23.7132 10.3811 24.2062C11.0958 24.7599 11.7702 25.1392 12.6267 25.4559C12.6688 25.4141 12.2013 24.5286 12.1323 24.466C11.8162 24.1797 10.8888 23.7909 10.4309 23.4173C9.97293 23.0438 9.39237 22.4066 9.03406 21.9306C8.25805 20.8972 7.369 19.6646 9.47092 20.48C10.7394 20.9711 12.2569 22.1829 12.5251 23.5671C12.5692 23.7928 12.4945 24.0393 12.5558 24.2783C12.6037 24.4641 13.0157 25.1069 13.1881 25.2719C13.1517 24.4603 13.2398 23.624 13.1938 22.8143C13.1728 22.4521 13.0846 21.4736 12.9812 21.174C12.916 20.9844 12.5213 20.7056 12.3642 20.4876C11.4406 19.2133 10.8409 17.8726 10.5995 16.3081C10.519 15.7904 10.1665 14.628 11.0364 14.903L11.0249 13.2968L7.52803 11.757L7.62383 11.5712H13.2839H13.2877ZM13.3816 20.1785V18.8359C13.3816 18.779 13.0291 17.8991 12.9639 17.7683C12.552 16.932 11.8622 16.2626 11.182 15.6444C10.9808 15.561 11.0383 15.8606 11.0383 15.9706C11.0459 16.9131 11.6782 18.487 12.1496 19.3157L12.6324 19.9926C12.7206 19.4712 11.8392 18.652 12.4926 18.3277C12.711 18.3789 13.0616 19.7082 13.1709 19.9756C13.2283 20.1159 13.1153 20.2259 13.3816 20.1785ZM14.6922 21.5666L16.3611 19.2076L14.6922 16.7538V21.5666ZM14.6922 24.5286C14.9202 24.5343 15.0793 24.2214 15.1981 24.0583C16.0967 22.8314 16.6562 21.0299 16.7501 19.5318C15.8131 20.4724 14.721 22.308 14.4527 23.5994C14.4335 23.6942 14.332 23.9047 14.5044 23.8819L15.7671 21.5685L16.1887 21.4774C16.1887 21.5552 16.2002 21.6329 16.1925 21.7107C16.135 22.3554 14.8436 23.7757 14.6922 24.5305V24.5286ZM10.2488 25.1771C9.7181 25.1107 8.94401 25.1771 8.37876 25.1771C8.28104 25.1771 8.20057 24.9154 8.23889 24.8073C8.35769 24.8509 8.51481 24.7144 8.56654 24.7144H10.063C10.1147 24.7144 10.3887 24.9439 10.3906 24.7144C9.37704 24.2783 8.00321 24.3882 6.99919 24.8263C6.8689 24.8832 6.68879 24.9211 6.65047 25.0823C7.08542 25.1449 7.53378 25.4217 7.93998 25.5184C8.6815 25.6967 10.0515 25.9072 10.5784 25.2681C10.45 25.3079 10.3255 25.1847 10.2508 25.1752L10.2488 25.1771ZM10.2009 29.2484C9.40578 28.3325 8.08561 27.9514 6.92638 27.6764C6.83441 27.7485 8.28104 29.1783 8.42283 29.2959C9.07621 29.8458 10.0707 30.5815 10.9501 30.4981C10.7164 30.0259 8.3596 28.9678 8.42475 28.6473C8.53588 28.1107 9.94228 29.2465 10.2009 29.2465V29.2484ZM18.0588 29.4362L16.7539 29.3471C16.7692 29.5537 16.729 29.6448 16.6159 29.8116C16.5144 29.9615 13.8204 31.945 14.0369 32.1194C15.6119 31.6624 16.888 30.5265 18.0588 29.4362ZM16.1887 29.5291C15.7288 29.2826 14.2477 30.737 14.4125 30.9172L16.1887 29.5291ZM12.5405 34.249V32.6295C12.5405 32.512 11.7894 31.1827 11.6802 31.122L10.109 30.9172C10.816 31.4444 10.9712 32.2067 11.3755 32.8552C11.6418 33.2838 12.2109 33.8318 12.5405 34.2471V34.249ZM8.89227 31.1011L8.09902 31.0063C8.0013 31.012 8.0492 31.1201 8.0971 31.194C8.43816 31.7326 9.61463 32.6125 10.2968 32.5802L8.91526 31.6321L8.89419 31.1011H8.89227ZM18.0588 32.768C17.118 32.8002 16.0373 33.0353 15.3456 33.6915C16.1427 33.3862 16.9877 33.1965 17.7962 32.9235C17.894 32.8893 18.0798 32.9026 18.0568 32.768H18.0588ZM18.4343 33.2307L15.8169 34.0176L14.7861 34.5239C16.0737 34.5941 17.5127 34.1124 18.4343 33.2307ZM9.91928 34.8046C8.96125 34.9108 8.35769 35.9215 7.86143 36.6535C8.71024 36.443 9.56673 36.1206 10.2009 35.4986C10.3063 35.3943 10.542 35.0852 10.2488 35.1744C9.99976 35.2502 9.52266 35.711 9.27165 35.7831C9.12986 35.8229 9.04747 35.8248 8.99382 35.6712C8.84054 35.2218 9.70468 35.0947 9.91928 34.8046ZM16.844 38.2274C17.6947 37.9392 18.2791 36.9455 18.4343 36.0998L17.0317 37.1655L17.367 37.2963C17.5625 37.7344 17.0049 37.905 16.844 38.2293V38.2274ZM9.45176 39.8961C9.04939 39.8753 8.59528 40.1237 8.28296 40.3588C8.145 40.4612 7.18122 41.4549 7.30193 41.5611C8.37302 41.3999 9.87905 41.1856 10.7145 40.448C10.7988 40.374 11.0613 40.1958 10.9022 40.0782C10.4999 40.1901 10.0802 40.2147 9.68361 40.3531C9.28698 40.4916 8.57804 41.1761 8.55887 40.448L9.45368 39.8961H9.45176Z" fill="white"></path></g><defs><clipPath id="clip0_437_635"><rect width="61" height="61" fill="white"></rect></clipPath></defs></svg>