<svg xmlns="http://www.w3.org/2000/svg" width="1262" height="933" viewBox="0 0 1262 933" fill="none"><path d="M1261.76 631C1261.76 979.473 979.342 1262 631 1262C563.655 1262 498.919 1251.33 437.977 1231.87C617.958 1272.44 827.106 1186.33 884.254 985.404C922.431 850.189 873.346 753.404 707.355 547.736C576.223 384.293 526.9 282.052 557.49 173.644C589.74 60.2534 693.602 30.6011 810.269 47.918C971.517 72.1143 1089.37 197.84 1089.37 197.84C1084.86 192.621 1080.12 188.114 1075.62 183.132C1190.62 297.471 1262 455.933 1262 631H1261.76ZM418.058 236.269C378.221 377.177 433.234 497.446 569.346 665.634C701.19 830.026 753.596 924.201 720.872 1040.2C681.034 1181.11 547.056 1240.41 408.573 1201.27C295.463 1169.25 219.818 1110.18 182.352 1074.83C69.7159 960.97 0 804.169 0 631C0 282.527 282.421 0 630.763 0C715.655 0 796.516 16.8425 870.5 47.2064C849.633 39.141 828.291 31.7872 805.764 25.3823C656.61 -16.8425 472.598 44.3598 418.058 236.269ZM254.202 470.878C251.594 385.005 272.698 320.244 336.012 272.326C210.808 325.463 43.1575 563.63 124.73 821.486C184.249 1009.84 310.876 1145.05 473.784 1145.05C551.088 1145.05 656.136 1082.19 652.816 972.594C650.207 882.688 620.092 816.979 439.4 737.985C291.194 673.225 257.522 580.235 254.439 470.878H254.202Z" fill="#F3F4F6"></path></svg>

